<svg xmlns="http://www.w3.org/2000/svg" viewBox="0 0 193 70.3" width="180px" height="66px">
  <path d="M13.5 32.2c1 0 1.9-.4 2.3-.9.3-.2.4-.5.5-.8l-.4-.1-.4.6c-.4.4-1.2.8-2.2.8a4 4 0 0 1-2-.6c-.3-.2-.6-.4-.7-.8l-.4.1c.1.4.4.8.8 1 .5.3 1.1.6 2 .6v4.3h-2.4v.6H13v7.7h.5V37H16v-.4h-2.5v-4.4zm-1.2-6.9c.7 0 2.3.1 3 .4.8.4 1.3.7 1.8 1.6.3.5.4.7.5 1.4-.9 0-3-.2-2.6.7.1.1.7.8 1.5.9 1.1.2 2.6 0 3.8-.4.4-.2-.1-.7.2-.8l.5-.3-.2-.5 1.5-.8 1.1 2.3-1.6.8-.5-1.1.8-.6-.1-.2-1 .6v.6c-.1.3-.3.4-.6.5l.1.2c.4-.1.6-.2.8-.6l.3.5-1.3.8v-1.2l-.3.1v14.9c-.5-.1-1.5-.3-1.9-.8-.4-.6-.3-1.3-.3-2.3 0-.1.1-6.2-.1-6.9-.2-.6-.4-.8-.6-1.1-.2-.3-.6-.5-.9-.7v11.5h-5.8V33.6c-.4.1-.6.2-.9.5-.3.3-.5.8-.5 1.1v6.9c0 1.4-.2 1.7-.3 1.8-.5.8-1.2 1.1-2 1.1V31.2c0-.5.1-1-.3-1.1v1L4 29.9l.1-.3.7.3.1-.2-.6-.3.1-.2c.2-.1.4.1.7.2v-.2l-.6-.3-1-.6.1-.2 1 .6.1-.2-1-.7.1-.2 1 .7.5.4c.2.3-.1 1 .7 1.3v-.2c-.5-.3-.3-.8-.5-1.1-.1-.2-.8-.5-.5-.9l1.3 1.1c.1.2-.2.6.2.9.4.3 2.3.7 2.9.6 1-.1 2.1-.3 2.8-1.1l.4.6.7-.2.1-1.6-.1-1.9c-.3-.4-.4-.6-1-.9z"/>
  <path stroke="#000" stroke-width=".1" stroke-miterlimit="3.9" d="M11.3 45.3h.9v1.2l-.9.5-1.7 1.2c0-1.3 1-1.9 1.3-2.2.1-.2.2-.7.4-.7zM14.2 45.3h.9s.4.8.7 1c.5.6.8.5.9 1.9l-1.5-1c-.6-.5-.9-.5-1-.7v-1.2z"/>
  <path fill-rule="evenodd" clip-rule="evenodd" d="M11.5 27.1c.4.2.4.2.8 0-.1-.2-.3-.4-.6-.3l-.2.3zm-.2-1.2c-.1.3 0 .4.2.6.1-.4.1-.4-.2-.6zm.3 0c-.1.3 0 .4.2.6.1-.3.2-.4-.2-.6zm.4 0c-.1.3 0 .3.2.6 0-.3.1-.4-.2-.6zm.3 0c-.1.3 0 .4.2.6.1-.3.1-.4-.2-.6zm-.8-.4c.2-.1.5.1.8.2.3.2.7.6.8.9.1.2 0 3.2 0 3.2H13l-.5-.8h-1.3l-.1-.8-.3-.1c.2-1.4-.2-2.3.7-2.6z"/>
  <path d="M51.8 34.3v-13H53v11.9h6.5v1.1h-7.7zM66.6 27.9a2 2 0 0 0-.2-.9 2 2 0 0 0-.4-.6 1 1 0 0 0-.7-.3l-.8-.1-.8.1a1 1 0 0 0-.7.3l-.5.5-.2.8h-1.2l.4-1.2.7-.8c.3-.2.6-.4 1-.4.4-.3.8-.3 1.3-.3 1 0 1.8.2 2.3.7.6.5.9 1.2.9 2.2v5.4l.1 1h-1.1V33l-.1.1c-.2.4-.5.7-1 1-.5.3-1.1.4-1.8.4a5 5 0 0 1-1.2-.2l-1-.5c-.3-.2-.5-.5-.6-.9-.2-.3-.2-.7-.2-1.2 0-.6.2-1.1.5-1.6.3-.4.8-.8 1.3-1l1-.3 1-.1h2.1v-.8zm-4.7 3.9c0 .6.2 1.1.6 1.4.4.3.9.4 1.4.4.5 0 1-.1 1.3-.3l.8-.7c.2-.3.4-.6.4-1l.1-1.2v-.3-.3H65.2l-1.2.1-1.1.3-.8.6-.2 1zM71.6 34.3h-1.1v-7-1l-.1-1h1.1l.1 1.3c.3-.6.7-1 1.2-1.2a3 3 0 0 1 1.6-.4l1.3.2.9.5.6.7c.1.3.3.5.3.8l.1.8v6.3h-1.1v-5.8c0-.8-.2-1.4-.6-1.8-.4-.4-1-.6-1.7-.6l-1.2.3-.8.7-.5 1-.2 1.2v5zM86.7 32.9c-.4.5-.9.9-1.4 1.2-.5.3-1.1.4-1.7.4a3 3 0 0 1-1.7-.4c-.5-.3-.9-.7-1.2-1.1-.3-.5-.5-1-.6-1.6l-.2-1.7.2-1.7c.1-.6.3-1.1.6-1.5.3-.5.7-.8 1.2-1.1a3 3 0 0 1 1.7-.4 4 4 0 0 1 1.8.4c.6.3 1 .7 1.3 1.2v-5.3h1.1v12l.1 1h-1.1l-.1-1.4zm0-3.4l-.2-1.3-.5-1.1c-.2-.3-.5-.6-.9-.8-.4-.2-.8-.3-1.3-.3s-.9.1-1.3.3a3 3 0 0 0-1.3 2l-.1 1.3a5.7 5.7 0 0 0 .5 2.6l.8 1c.3.3.8.4 1.3.4.6 0 1.1-.1 1.5-.3.4-.2.7-.5.9-.9l.5-1.3.1-1.6zM91.1 30l.2 1.4c.1.4.3.8.6 1.1l1 .8c.4.2.9.3 1.4.3l.9-.2.8-.5.6-.7.3-.9H98a4.6 4.6 0 0 1-1.4 2.4c-.7.5-1.6.8-2.7.8a3.4 3.4 0 0 1-3-1.5c-.3-.4-.6-1-.7-1.5-.2-.5-.2-1.1-.2-1.7a5.7 5.7 0 0 1 1.1-3.3c.3-.4.8-.8 1.3-1.1.5-.3 1.1-.4 1.8-.4.8 0 1.4.1 1.9.4.5.3.9.6 1.3 1.1.3.5.6 1 .7 1.6l.2 2h-7.2zm5.8-1l-.3-1.2a2 2 0 0 0-.6-1c-.2-.3-.5-.5-.9-.6-.2-.2-.6-.2-1.1-.2l-1.2.3-.9.7-.6 1-.3 1.1h5.9zM100.2 27.5c0-.5.1-.9.3-1.2l.8-.8 1.1-.4 1.2-.1 1.2.1 1 .4c.3.2.5.4.7.8.2.3.3.7.3 1.2h-1.2l-.2-.7-.5-.5-.7-.3-.8-.1-.7.1c-.2.1-.5.1-.6.3l-.5.5-.2.7c0 .3.1.6.3.8.2.2.5.3.9.4l1.3.4 1.7.5c.5.2.8.4 1.1.8.3.4.4.8.4 1.3s-.1.9-.3 1.3a2 2 0 0 1-.9.9l-1.2.5-1.4.2-1.2-.1-1.1-.5a3 3 0 0 1-.8-.8c-.2-.3-.3-.8-.3-1.3h1.2c0 .3.1.6.3.8.2.2.3.4.6.5l.8.3.9.1.9-.1.8-.3c.2-.1.4-.3.5-.6l.2-.8-.2-.8-.6-.5-.9-.3-1.1-.2-1.1-.3-.9-.4c-.3-.2-.5-.4-.6-.7-.4-.3-.5-.7-.5-1.1zM110.6 26.6c.3-.6.8-1 1.2-1.2a3 3 0 0 1 1.6-.4l1.3.2.9.5.6.7c.1.3.3.5.3.8l.1.8v6.3h-1.1v-5.8c0-.8-.2-1.4-.6-1.8-.4-.4-1-.6-1.7-.6l-1.2.3-.8.7-.5 1-.2 1.2v5.2h-1.1v-13h1.1v5.1zM124.6 27.9a2 2 0 0 0-.2-.9l-.4-.6a1 1 0 0 0-.7-.3l-.9-.1-.8.1a1 1 0 0 0-.7.3l-.5.5-.2.8H119l.4-1.2.7-.8c.3-.2.6-.4 1-.4l1.2-.1c1 0 1.8.2 2.3.7.6.5.9 1.2.9 2.2v5.4l.1 1h-1.1v-1.3l-.1.1c-.2.4-.5.7-1 1-.5.3-1.1.4-1.8.4a5 5 0 0 1-1.2-.2l-1-.5c-.3-.2-.5-.5-.6-.9-.2-.3-.2-.7-.2-1.2 0-.6.2-1.1.5-1.6.3-.4.8-.8 1.3-1l1-.3 1-.1h2.1v-1zm-4.7 3.9c0 .6.2 1.1.6 1.4.4.3.9.4 1.4.4.5 0 1-.1 1.3-.3l.8-.7c.2-.3.4-.6.4-1l.1-1.2v-.3-.3H123.2l-1.2.1-1.1.3-.8.6-.2 1zM134.6 25.2h1.1v8l.1 1h-1.1l-.1-1.3c-.3.6-.7 1-1.2 1.2a3 3 0 0 1-1.6.4l-1.3-.2-.9-.5-.6-.7c-.1-.3-.3-.5-.3-.8l-.1-.8v-6.3h1.1V31c0 .8.2 1.4.6 1.8.4.4 1 .6 1.7.6l1.2-.3.8-.7.5-1 .2-1.2v-5zM139.4 37.7h-1.1V27.3v-1l-.1-1h1.1l.1 1.3c.3-.5.8-.9 1.3-1.2a4 4 0 0 1 1.8-.4 3 3 0 0 1 1.7.4c.5.3.9.6 1.2 1.1l.6 1.5.2 1.7-.2 1.7a3.8 3.8 0 0 1-1.7 2.7 3 3 0 0 1-1.7.4c-.7 0-1.3-.1-1.8-.4-.5-.3-1-.7-1.4-1.2v4.8zm0-8.2l.2 1.5.5 1.3c.2.4.5.7.9.9.4.2.9.3 1.5.3a2 2 0 0 0 1.3-.4l.8-1 .4-1.3.1-1.3-.1-1.3-.5-1.2a3 3 0 0 0-.8-.8c-.3-.2-.8-.3-1.3-.3s-1 .1-1.3.3c-.4.2-.7.5-.9.8l-.5 1.1a4 4 0 0 0-.3 1.4zM149.3 26.2h-1.8v-1h1.8v-1.9l1.1-.5v2.4h2.1v1h-2.1v6c0 .9.4 1.3 1.2 1.3h.5l.4-.1v.9l-.5.1h-.6a4 4 0 0 1-1.3-.2l-.6-.6-.2-.9v-6.5zM154.2 27.5c0-.5.1-.9.3-1.2l.8-.8 1.1-.4 1.2-.1 1.2.1 1 .4c.3.2.5.4.7.8.2.3.3.7.3 1.2h-1.2l-.2-.7-.5-.5-.7-.3-.8-.1-.7.1c-.2.1-.5.1-.6.3l-.5.5-.2.7c0 .3.1.6.3.8.2.2.5.3.9.4l1.3.4 1.7.5c.5.2.8.4 1.1.8.3.4.4.8.4 1.3s-.1.9-.3 1.3a2 2 0 0 1-.9.9l-1.2.5-1.4.2-1.2-.1-1.1-.5a3 3 0 0 1-.8-.8c-.2-.3-.3-.8-.3-1.3h1.2c0 .3.1.6.3.8.2.2.3.4.6.5l.8.3.9.1.9-.1.8-.3c.2-.1.4-.3.5-.6l.2-.8-.2-.8-.6-.5-.9-.3-1.1-.2-1.1-.3-.9-.4c-.3-.2-.5-.4-.6-.7-.4-.3-.5-.7-.5-1.1zM164.3 26.2h-1.8v-1h1.8v-1.9l1.1-.5v2.4h2.1v1h-2.1v6c0 .9.4 1.3 1.2 1.3h.5l.4-.1v.9l-.5.1h-.6a4 4 0 0 1-1.3-.2l-.6-.6-.2-.9v-6.5zM174.6 27.9a2 2 0 0 0-.2-.9l-.4-.6a1 1 0 0 0-.7-.3l-.9-.1-.8.1a1 1 0 0 0-.7.3l-.5.5-.2.8H169l.4-1.2.7-.8c.3-.2.6-.4 1-.4l1.2-.1c1 0 1.8.2 2.3.7.6.5.9 1.2.9 2.2v5.4l.1 1h-1.1v-1.3l-.1.1c-.2.4-.5.7-1 1-.5.3-1.1.4-1.8.4a5 5 0 0 1-1.2-.2l-1-.5c-.3-.2-.5-.5-.6-.9-.2-.3-.2-.7-.2-1.2 0-.6.2-1.1.5-1.6.3-.4.8-.8 1.3-1l1-.3 1-.1h2.1v-1zm-4.7 3.9c0 .6.2 1.1.6 1.4.4.3.9.4 1.4.4.5 0 1-.1 1.3-.3l.8-.7c.2-.3.4-.6.4-1l.1-1.2v-.3-.3H173.2l-1.2.1-1.1.3-.8.6-.2 1zM184.8 32.9c-.4.5-.9.9-1.4 1.2-.5.3-1.1.4-1.7.4a3 3 0 0 1-1.7-.4c-.5-.3-.9-.7-1.2-1.1-.3-.5-.5-1-.6-1.6l-.2-1.7.2-1.7c.1-.6.3-1.1.6-1.5.3-.5.7-.8 1.2-1.1a3 3 0 0 1 1.7-.4 4 4 0 0 1 1.8.4c.6.3 1 .7 1.3 1.2v-5.3h1.1v12l.1 1h-1.1l-.1-1.4zm-.1-3.4l-.2-1.3-.5-1.1c-.2-.3-.5-.6-.9-.8-.4-.2-.8-.3-1.3-.3s-.9.1-1.3.3a3 3 0 0 0-.8.8c-.2.3-.4.7-.4 1.2l-.1 1.3a5.7 5.7 0 0 0 .5 2.6l.8 1c.3.3.8.4 1.3.4.6 0 1.1-.1 1.5-.3.4-.2.7-.5.9-.9l.5-1.3v-1.6zM189.3 26.2h-1.8v-1h1.8v-1.9l1.1-.5v2.4h2.1v1h-2.1v6c0 .9.4 1.3 1.2 1.3h.5l.4-.1v.9l-.5.1h-.6a4 4 0 0 1-1.3-.2l-.6-.6-.2-.9v-6.5zM52 51.8v-13h1.9l4.9 11.3 5-11.3h1.8v13h-1.2v-12l-5 12h-1.2l-5-12v12H52zM74.7 42.7h1.1v8l.1 1h-1.1l-.1-1.3c-.3.6-.7 1-1.2 1.2a3 3 0 0 1-1.6.4l-1.3-.2-.9-.5-.6-.7c-.1-.3-.3-.5-.3-.8l-.1-.8v-6.3h1.1v5.8c0 .8.2 1.4.6 1.8.4.4 1 .6 1.7.6l1.2-.3.8-.7.5-1 .2-1.2v-5zm-4.5-2.5v-1.4h1.2v1.4h-1.2zm3 0v-1.4h1.2v1.4h-1.2zM79.8 51.8h-1.1v-7-1l-.1-1h1.1l.1 1.3c.3-.6.7-1 1.2-1.2a3 3 0 0 1 1.6-.4l1.3.2.9.5.6.7c.1.3.3.5.3.8l.1.8v6.3h-1.1V46c0-.8-.2-1.4-.6-1.8-.4-.4-1-.6-1.7-.6l-1.2.3-.8.7-.5 1-.2 1.2v5zM94.4 45.5c0-.7-.3-1.2-.7-1.5a3 3 0 0 0-1.8-.5 2 2 0 0 0-1.1.3 3 3 0 0 0-1.3 2l-.2 1.5.2 1.5.5 1.2.8.8c.3.2.7.3 1.1.3.7 0 1.3-.2 1.7-.6.4-.4.7-.9.7-1.5h1.2c-.2 2-1.4 3-3.5 3a3.4 3.4 0 0 1-3-1.5c-.3-.4-.6-1-.7-1.5-.2-.6-.2-1.2-.2-1.8a5.7 5.7 0 0 1 1.1-3.3c.3-.4.8-.8 1.3-1.1.5-.3 1.1-.4 1.8-.4l1.3.2c.4.1.8.3 1.1.6.3.3.6.6.7 1 .2.4.3.8.3 1.3h-1.3zM98.8 44.1c.3-.6.8-1 1.2-1.2a3 3 0 0 1 1.6-.4l1.3.2.9.5.6.7c.1.3.3.5.3.8l.1.8v6.3h-1.1V46c0-.8-.2-1.4-.6-1.8-.4-.4-1-.6-1.7-.6l-1.2.3-.8.7-.5 1-.2 1.2V52h-1.1V39h1.1v5.1zM108.3 47.5l.2 1.4c.1.4.3.8.6 1.1l1 .8c.4.2.9.3 1.4.3l.9-.2.8-.5.6-.7.3-.9h1.1a4.6 4.6 0 0 1-1.4 2.4c-.7.5-1.6.8-2.7.8a3.4 3.4 0 0 1-3-1.5c-.3-.4-.6-1-.7-1.5-.2-.6-.2-1.2-.2-1.8a5.7 5.7 0 0 1 1.1-3.3c.3-.4.8-.8 1.3-1.1.5-.3 1.1-.4 1.8-.4.8 0 1.4.1 1.9.4.5.3.9.6 1.3 1.1.3.5.6 1 .7 1.6l.2 2h-7.2zm5.8-1l-.3-1.2a2 2 0 0 0-.6-1c-.2-.3-.5-.5-.9-.6-.4-.2-.8-.2-1.2-.2l-1.2.3-.9.7-.6 1-.3 1.1h6zM118.8 51.8h-1.1v-7-1l-.1-1h1.1l.1 1.3c.3-.6.7-1 1.2-1.2a3 3 0 0 1 1.6-.4l1.3.2.9.5.6.7c.1.3.3.5.3.8l.1.8v6.3h-1.1V46c0-.8-.2-1.4-.6-1.8-.4-.4-1-.6-1.7-.6l-1.2.3-.8.7-.5 1-.2 1.2v5zM52.1 56.8h2.8v5.6l4.4-5.6h3.3l-4.8 5.8 5.2 7.2h-3.5l-4.6-6.6v6.6h-2.8v-13zM66.5 60.7v6l.2.6.4.5.8.2 1-.2.5-.6.2-.9V60.6h2.7V69.7h-2.6l-.1-1.2-.3.4-.5.5-.8.4c-.1.2-.4.2-.9.2-.6 0-1.2-.1-1.6-.4-.5-.2-.8-.5-1.1-.9l-.3-.6-.2-.7-.1-.6v-6.2h2.7zM74.9 56.8h2.7v13h-2.7v-13zM85.3 69.7l-1.2.2-.9.1c-.7 0-1.2-.1-1.6-.3-.4-.2-.6-.4-.8-.7-.2-.3-.3-.5-.3-.8v-5.7h-1.7v-1.8h1.7V59l2.7-1v2.7h2.2v1.8h-2.2V67.2l.1.4.4.3.7.1h.9v1.7zM89.3 60.7v6l.2.6.4.5.8.2 1-.2.5-.6.2-.9V60.6h2.7V69.7h-2.6l-.1-1.2-.3.4-.5.5-.8.4c0 .2-.4.2-.8.2-.6 0-1.2-.1-1.6-.4-.5-.2-.8-.5-1.1-.9l-.3-.6-.2-.7-.1-.6v-6.2h2.6zM97.8 62.9v-.5-.6-.7-.5h2.5l.1 1.7.3-.6.5-.6c.2-.2.5-.3.9-.4.4-.1.8-.2 1.3-.1V63c-.7-.1-1.2 0-1.6.1a2 2 0 0 0-.9.5l-.4.8-.1.9v4.5h-2.7v-6.9zM104.3 62.9v-.5-.6-.7-.5h2.5l.1 1.7.3-.6.5-.6c.2-.2.5-.3.9-.4.4-.1.8-.2 1.3-.1V63c-.7-.1-1.2 0-1.6.1a2 2 0 0 0-.9.5l-.4.8-.1.9v4.5h-2.7v-6.9zM113.5 65.9v.6l.2.8.5.7c.2.2.6.3 1.1.3.3 0 .7-.1.9-.3.3-.2.5-.5.6-1h2.4v.4l-.1.5-.3.5-.4.6-1.3.8-1.8.3h-.7l-.8-.2-.9-.3c-.3-.1-.6-.3-.8-.6-.4-.4-.7-.9-.9-1.5-.2-.6-.3-1.3-.3-2l.1-1.2.3-1.2c.1-.4.3-.7.6-1.1l1-.9 1.2-.6 1.4-.2 1 .1 1 .4.9.7.7 1.1.4.9.2.9v1.5h-6.2zm3.4-1.7v-.5l-.2-.7-.5-.6c-.2-.2-.5-.3-.9-.3a1.4 1.4 0 0 0-1.2.7l-.3.6-.1.8h3.2zM121.9 62.6h-1.3v-1.9h1.3v-1.2l.1-1.1c.1-.4.2-.7.5-.9.2-.3.6-.5 1-.6.4-.2.9-.2 1.6-.2h.5l.9.1v1.8h-.6l-.8.1-.4.3-.2.4v1.5h1.7v1.9h-1.7V70h-2.7v-7.4zM129.8 65.9v.6l.2.8.5.7c.2.2.6.3 1.1.3.3 0 .7-.1.9-.3.3-.2.5-.5.6-1h2.4v.4l-.1.5-.3.5-.4.6-1.3.8-1.8.3h-.7l-.8-.2-.9-.3c-.3-.1-.6-.3-.8-.6-.4-.4-.7-.9-.9-1.5-.2-.6-.3-1.3-.3-2l.1-1.2.3-1.2c.1-.4.3-.7.6-1.1l1-.9 1.2-.6 1.4-.2 1 .1 1 .4.9.7.7 1.1.4.9.2.9v1.5h-6.2zm3.4-1.7v-.5l-.2-.7-.5-.6c-.2-.2-.5-.3-.9-.3a1.4 1.4 0 0 0-1.2.7l-.3.6-.1.8h3.2zM137.8 62.9v-.5-.6-.7-.5h2.5l.1 1.7.3-.6.5-.6c.2-.2.5-.3.9-.4.4-.1.8-.2 1.4-.1V63c-.7-.1-1.2 0-1.6.1a2 2 0 0 0-.9.5c-.2.2-.3.5-.3.8l-.1.9v4.5h-2.7v-6.9zM150.1 69.8l-.1-.7v-.5a3 3 0 0 1-1.6 1.2l-.7.2h-.5l-1.5-.2-.8-.5-.6-.9-.2-1.1.1-.6.3-.8.6-.8 1-.7.9-.3 1-.2.9-.1h.8v-.7l-.1-.5-.3-.4-.3-.2-.3-.1h-.3l-.6.1-.5.4-.2.4v.4h-2.6v-.4l.1-.6.3-.6c.1-.2.3-.4.6-.5.4-.3.9-.5 1.4-.6l1.4-.1h.7l.9.2.9.4.8.6.4.6.2.6.1.6V68.7l.2 1.2h-2.4zm-.3-4.3h-1.2c-.4 0-.7.1-.9.3a1 1 0 0 0-.6.5l-.2.7.1.5.2.4.4.3.6.1.6-.2.5-.4c.2-.3.4-.6.4-1l.1-1.2zM160.2 69.7l-1.2.2-.9.1c-.7 0-1.2-.1-1.6-.3-.4-.2-.6-.4-.8-.7-.2-.3-.3-.5-.3-.8v-5.7h-1.7v-1.8h1.7V59l2.7-1v2.7h2.2v1.8h-2.2V67.2l.1.4.4.3.7.1h.9v1.7z"/>
  <path fill="none" stroke="#000" stroke-width=".7" stroke-miterlimit="3.9" d="M.6 21.6h25.1v19c0 7-5.6 12.5-12.6 12.5C6.2 53.1.5 47.5.5 40.6c.1.1.1-11.2.1-19z"/>
  <g>
    <path d="M2.6.8c1.2 0 2.2.3 2.9.9.7.6 1 1.6 1 2.8 0 1.2-.3 2.2-1 2.8-.7.7-1.7 1-2.9 1h-2V.8h2zm.1 6.9l1.4-.2c.4-.2.7-.4.9-.7l.5-1c.2-.4.2-.8.2-1.3l-.2-1.4-.7-1c-.3-.3-.7-.4-1.1-.6l-1.4-.1H1.2v6.3h1.5zM8.5 1.6h-.7V.8h.7v.8zm0 1.5v5.2h-.7V3.1h.7zM10.4 5.8l.1.8.3.7c.1.2.3.3.6.4l.8.2.5-.1.4-.3.3-.4.2-.5h.7c-.2.6-.4 1.1-.8 1.4-.4.3-.9.4-1.5.4l-1-.2-.7-.6-.4-.9a3.6 3.6 0 0 1-.1-2l.5-.9c.2-.3.4-.5.7-.6.3-.2.6-.2 1-.2l1.1.2c.3.1.5.4.7.6l.4.9.1 1.1h-3.9zm3.4-.6l-.1-.7-.3-.6-.5-.4-.7-.1-.7.1-.6.5-.3.6-.2.7h3.4zM15.5 4.4l.2-.7.4-.4c.2-.2.4-.3.7-.3l.7-.1.7.1.6.2.4.4.2.7h-.7l-.1-.4-.3-.3-.4-.1H17l-.4.1-.3.3-.1.4.2.4.5.3.8.2 1 .3c.3.1.5.3.6.5.2.2.2.5.2.7l-.2.8-.5.5-.7.3-.8.1-.7-.1L16 8l-.5-.5-.2-.7h.7l.2.5.3.3.4.2h.5l.5-.1.4-.2.3-.3.1-.5-.1-.5-.4-.3c0 .1-.2.1-.4 0l-.6-.1-.6-.2-.5-.2a.8.8 0 0 1-.4-.4l-.2-.6zM21.2 5.8l.1.8.3.7c.1.2.3.3.6.4l.8.2.5-.1.4-.3.3-.4.2-.5h.7a2 2 0 0 1-.8 1.4c-.4.3-.9.4-1.5.4l-1-.2-.7-.6-.4-.9-.1-1 .1-1 .4-.9c.2-.3.4-.5.7-.6.3-.2.6-.2 1-.2l1.1.2c.3.1.5.4.7.6.3.2.4.5.5.9l.1 1.1h-4zm3.3-.6l-.1-.7-.3-.6-.5-.4-.7-.1-.7.1-.5.5-.3.6-.2.7h3.3zM30.9 7.6L33.3.8h.7l-2.7 7.5h-.8L27.8.8h.7l2.4 6.8zM34.3 5.8l.1.8.3.7c.1.2.3.3.6.4l.8.2.5-.1.4-.3.3-.4.2-.5h.7c-.2.6-.4 1.1-.8 1.4-.4.3-.9.4-1.5.4l-1-.2-.7-.6-.4-.9-.1-1 .1-1c.1-.4.2-.7.4-.9.2-.3.4-.5.7-.6.3-.2.6-.2 1-.2l1.1.2c.3.1.5.4.7.6.3.2.5.5.5.9l.1 1.1h-4zm3.4-.6l-.1-.7-.3-.6-.5-.4-.7-.1-.7.1-.6.5-.3.6-.2.7h3.4zM40.3 8.3h-.6v-4-.6-.6h.6v.8l.5-.7c.2-.2.5-.3.9-.3h.4v.6h-.4c-.5 0-.8.2-1.1.5-.2.3-.4.7-.4 1.2v3.1zM46 4.6l-.1-.5c-.1-.1-.1-.3-.3-.3l-.4-.2-.5-.1h-.5l-.4.1-.3.3-.1.4h-.7l.2-.7.4-.5.7-.1.7-.1c.6 0 1 .1 1.4.4.3.3.5.7.5 1.3v3.7H46v-.8.1l-.6.6c-.3.2-.6.3-1.1.3l-.7-.1-.6-.3-.4-.5-.1-.7c0-.4.1-.7.3-.9.2-.3.4-.4.8-.6l.6-.2.6-.1H46v-.5zm-2.8 2.2c0 .4.1.6.3.8.2.2.5.3.8.3l.8-.2.5-.4.3-.6.1-.7v-.2-.2h-.7l-.7.1a1 1 0 0 0-.6.2l-.5.4c-.2.1-.3.3-.3.5zM48.7 8.3h-.6v-4-.6-.6h.6v.8c.2-.3.4-.6.7-.7.3-.2.6-.3 1-.3l.7.1.5.3.3.4.2.5.1.5V8.4h-.6V4.9c0-.5-.1-.8-.4-1.1-.2-.2-.6-.4-1-.4-.3 0-.5 0-.7.2L49 4l-.3.6-.1.7v3zM53.6 4.4l.2-.7.4-.4.6-.3.7-.1.7.1.6.2.4.4.2.7h-.7l-.1-.4-.3-.3-.4-.1H55l-.4.1-.3.3-.1.4.2.4.6.3.8.2 1 .3.5.5c.2.2.2.5.2.7l-.2.8-.5.5-.7.3-.8.1-.7-.1L54 8l-.5-.5-.2-.7h.7l.2.5.3.3.4.2h.5l.5-.1.4-.2.3-.3.1-.5-.1-.5-.4-.3h-.3l-.6-.1-.6-.2-.5-.2-.5-.4-.1-.6zM59.3 3.6h-1v-.5h1V1.9l.6-.3V3h1.2v.6h-1.2v3.5c0 .5.2.7.7.7h.3l.3-.1v.5l-.3.1h-.3l-.8-.1a.8.8 0 0 1-.4-.4l-.1-.5V3.6zM65.2 4.6l-.1-.5-.3-.4-.4-.2-.5-.1h-.5l-.4.1-.3.3-.1.4H62l.2-.7.4-.5h.7l.7-.1c.6 0 1 .1 1.4.4.3.3.5.7.5 1.3v3.7h-.6v-.8.1l-.7.6c-.3.2-.6.3-1.1.3l-.7-.1-.6-.3-.4-.5-.1-.7c0-.4.1-.7.3-.9.2-.3.4-.4.8-.6l.6-.2.6-.1h1.2v-.5zm-2.7 2.2c0 .4.1.6.3.8s.5.3.8.3l.8-.2.5-.4.3-.6.1-.7v-.2-.2h-.7l-.7.1a1 1 0 0 0-.6.2l-.5.4c-.3.1-.3.3-.3.5zM68 8.3h-.6V.8h.6v7.5zM70 3.6h-1v-.5h1V1.9l.6-.3V3h1.2v.6h-1.2v3.5c0 .5.2.7.7.7h.3l.3-.1v.5l-.3.1h-.3l-.8-.1a.8.8 0 0 1-.4-.4l-.1-.4V3.6zM76.3 3.1h.7V8.3h-.6v-.8c-.2.3-.4.6-.7.7-.3.2-.6.2-.9.2l-.7-.1-.5-.3-.3-.4c-.3-.1-.3-.3-.4-.5l-.1-.4V3.1h.6v3.4c0 .5.1.8.4 1.1.2.2.6.4 1 .4.3 0 .5 0 .7-.2l.5-.4.3-.6.1-.7v-3zM79.1 8.3h-.6v-4-.6-.6h.6v.8c.2-.3.4-.6.7-.7.3-.2.6-.2.9-.2l.7.1.5.3.3.4.2.5.1.5V8.5H82V4.9c0-.5-.1-.8-.4-1.1-.2-.2-.6-.4-1-.4-.3 0-.5 0-.7.2l-.4.4-.3.6-.1.7v3zM87.8 3.1h.6v5.1l-.1.7-.3.7c-.1.2-.4.4-.7.5l-.6.2h-.6l-.7-.1-.7-.2-.5-.4-.2-.7h.7l.2.4.3.3.5.1h.5l.6-.1.5-.3.4-.5.1-.6v-1c-.2.3-.4.6-.7.7-.3.2-.6.3-1 .3l-1-.2c-.3-.1-.5-.3-.7-.6l-.4-.7-.1-1 .1-1c0-.4.2-.7.4-1 .2-.2.4-.5.7-.6.3-.2.6-.2 1-.2s.7.1 1 .3l.7.7v-.8zm0 2.5l-.1-.7-.3-.7-.5-.5-.7-.2-.7.2a1 1 0 0 0-.6.5l-.3.7-.1.7.1.7.3.7.5.5.7.2.8-.2.5-.5.3-.7.1-.7zM94.2 7.5l1.6-4.4h.7L98 7.5l1.5-4.4h.7l-1.9 5.2h-.6l-1.6-4.5-1.6 4.5h-.6L92 3.1h.7l1.5 4.4zM101.9 1.6h-.7V.8h.7v.8zm0 1.5v5.2h-.6V3.1h.6zM104.1 8.3h-.6v-4-.6-.6h.6v.8l.5-.7c.2-.2.5-.3.9-.3h.4v.6h-.4c-.5 0-.8.2-1.1.5-.2.3-.4.7-.4 1.2v3.1zM110.4 7.5l-.8.7c-.3.2-.6.3-1 .3s-.7-.1-1-.3l-.7-.6-.4-.9-.1-1 .1-1 .4-.9c.2-.3.4-.5.7-.6.3-.2.6-.2 1-.2l1 .2.8.7V.8h.6V8.3h-.6v-.8zm0-2l-.1-.8-.3-.7-.5-.5-.8-.2a1.4 1.4 0 0 0-1.2.7l-.3.7-.1.7.1.8.2.7.5.6.7.2.9-.2.5-.5.3-.7.1-.8zM118.9 3.1h.6v5.1l-.1.7-.3.7c-.1.2-.4.4-.7.5l-.6.2h-.6l-.7-.1-.7-.2-.5-.4-.2-.7h.7l.2.4.3.3.5.1h.5l.6-.1.5-.3.4-.5.1-.6v-1c-.2.3-.4.6-.7.7-.3.2-.6.3-1 .3l-1-.2c-.3-.1-.5-.3-.7-.6l-.4-.8-.1-1 .1-1 .4-.9c.2-.2.4-.5.7-.6.3-.2.6-.2 1-.2s.7.1 1 .3l.7.7v-.8zm0 2.5l-.1-.7-.3-.7-.5-.5-.7-.2a1.4 1.4 0 0 0-1.2.7l-.3.7-.1.7.1.7.3.7.5.5.7.2.8-.2.5-.5.3-.7v-.7zM121.3 5.8l.1.8.3.7c.1.2.3.3.6.4l.8.2.5-.1.4-.3.3-.4.2-.5h.7c-.2.6-.4 1.1-.8 1.4-.4.3-.9.4-1.5.4l-1-.2-.7-.6-.4-.9-.1-1 .1-1 .4-.9c.2-.3.4-.5.7-.6.3-.2.6-.2 1-.2l1.1.2c.3.1.5.4.7.6s.3.6.4.9l.1 1.1h-3.9zm3.4-.6l-.1-.7-.3-.6-.5-.4-.7-.1-.7.1-.5.4-.3.6-.2.7h3.3zM127.1 8.3V3.6H126v-.5h1.1V1.9c0-.5.1-.8.3-1 .2-.2.6-.3 1-.3h.5v.6h-.4l-.5.1-.3.2-.1.4v1.2h1.2v.6h-1.2v4.6h-.5zM131.8 2.9l1.1.2.8.6.4.9.1 1-.1 1-.4.9c-.2.3-.5.5-.8.6-.3.2-.7.2-1.1.2l-1.1-.2-.8-.6c-.2-.3-.4-.6-.4-.9l-.1-1 .1-1 .4-.9c.2-.3.5-.5.8-.6l1.1-.2zm1.8 2.8l-.1-.8-.3-.7-.5-.5-.8-.2-.8.2-.5.5-.3.7-.1.8.1.8.3.7.5.5.8.2.8-.2.5-.5.3-.7.1-.8zm-2.9-4.1V.8h.7v.8h-.7zm1.7 0V.8h.7v.8h-.7zM136.1 8.3h-.6v-4-.6-.6h.6v.8l.5-.7c.2-.2.5-.3.9-.3h.4v.6h-.4c-.5 0-.8.2-1.1.5-.2.3-.4.7-.4 1.2v3.1zM142.4 7.5l-.8.7c-.3.2-.6.3-1 .3s-.7-.1-1-.3l-.7-.6-.4-.9-.1-1 .1-1 .4-.9c.2-.3.4-.5.7-.6.3-.2.6-.2 1-.2l1 .2.8.7V.8h.6V8.3h-.6v-.8zm0-2l-.1-.8-.3-.7-.5-.5-.8-.2a1.4 1.4 0 0 0-1.2.7l-.3.7-.1.7.1.8.2.7.5.6.7.2.9-.2.5-.5.3-.7.1-.8zM144.8 5.8l.1.8.3.7c.1.2.3.3.6.4l.8.2.5-.1.4-.3.3-.4.2-.5h.7c-.2.6-.4 1.1-.8 1.4-.4.3-.9.4-1.5.4l-1-.2-.7-.6-.4-.9-.1-1 .1-1 .4-.9c.2-.3.4-.5.7-.6.3-.2.6-.2 1-.2l1.1.2c.3.1.5.4.7.6l.4.9.1 1.1h-3.9zm3.4-.6l-.1-.7-.3-.6-.5-.4-.7-.1-.7.1-.5.4-.3.6-.2.7h3.3zM150.8 8.3h-.6v-4-.6-.6h.6v.8l.5-.7c.2-.2.5-.3.9-.3h.4v.6h-.4c-.5 0-.8.2-1.1.5-.2.3-.4.7-.4 1.2v3.1zM154 3.6h-1v-.5h1V1.9l.6-.3V3h1.2v.6h-1.2v3.5c0 .5.2.7.7.7h.3l.3-.1v.5l-.3.1h-.3l-.8-.1a.8.8 0 0 1-.4-.4l-.1-.4V3.6zM159.7 3.1l1.7 4.4 1.7-4.4h.7l-2.2 5.2h-.6l-2-5.2h.7zM166.6 2.9l1.1.2.8.6.4.9.1 1-.1 1-.4.9c-.2.3-.5.5-.8.6l-1.1.2-1.1-.2-.8-.6c-.2-.3-.4-.6-.4-.9l-.1-1 .1-1 .4-.9c.2-.3.5-.5.8-.6l1.1-.2zm1.8 2.8l-.1-.8-.3-.7-.5-.5-.8-.2-.8.2-.5.5-.3.7-.1.8.1.8.3.7.5.5.8.2.8-.2.5-.5.3-.7.1-.8zM170.9 8.3h-.6v-4-.6-.6h.6v.8c.2-.3.4-.6.7-.7.3-.2.6-.2.9-.2l.7.1.5.3.3.4.2.5.1.5V8.5h-.6V4.9c0-.5-.1-.8-.4-1.1-.2-.2-.6-.4-1-.4-.3 0-.5 0-.7.2l-.5.4-.3.6-.1.7v3zM182.3 7.5l-.8.7c-.3.2-.6.3-1 .3s-.7-.1-1-.3l-.7-.6-.4-.9-.1-1 .1-1 .4-.9c.2-.3.4-.5.7-.6.3-.2.6-.2 1-.2l1 .2.8.7V.8h.6V8.3h-.6v-.8zm0-2l-.1-.8-.3-.7-.5-.5-.8-.2a1.4 1.4 0 0 0-1.2.7l-.3.7-.1.9.1.8.2.7.5.6.7.2.9-.2.5-.5.3-.7.1-1zM184.7 5.8l.1.8.3.7c.1.2.3.3.6.4l.8.2.5-.1.4-.3.3-.4.2-.5h.7c-.2.6-.4 1.1-.8 1.4-.4.3-.9.4-1.5.4l-1-.2-.7-.6-.4-.9-.1-1 .1-1 .4-.9c.2-.3.4-.5.7-.6.3-.2.6-.2 1-.2l1.1.2c.3.1.5.4.7.6l.4.9.1 1.1h-3.9zm3.4-.6l-.1-.7-.3-.6-.5-.4-.7-.1-.7.1-.5.4-.3.6-.2.7h3.3zM190.7 8.3h-.6v-4-.6-.6h.6v.8l.5-.7c.2-.2.5-.3.9-.3h.4v.6h-.4c-.5 0-.8.2-1.1.5-.2.3-.4.7-.4 1.2v3.1z"/>
  </g>
</svg>
